<svg width="58" height="133" viewBox="0 0 58 133" fill="none" xmlns="http://www.w3.org/2000/svg">
<g clip-path="url(#clip0_885_120334)">
<g opacity="0.3">
<path d="M17.3307 174.066C-5.3353 151.4 -5.33532 114.651 17.3307 91.9849C39.9967 69.3189 76.7457 69.3189 99.4117 91.9849C122.078 114.651 122.078 151.4 99.4117 174.066C76.7456 196.732 39.9968 196.732 17.3307 174.066Z" stroke="white" stroke-width="0.67" stroke-miterlimit="10"/>
<path d="M10.72 99.9102H106.01" stroke="white" stroke-width="0.67" stroke-miterlimit="10"/>
<path d="M25.25 85.3901V180.67" stroke="white" stroke-width="0.67" stroke-miterlimit="10"/>
<path d="M17.3363 107.581C-5.32969 84.9145 -5.32971 48.1656 17.3363 25.4995C40.0024 2.83352 76.7513 2.83355 99.4173 25.4996C122.083 48.1656 122.083 84.9145 99.4173 107.581C76.7513 130.247 40.0024 130.247 17.3363 107.581Z" stroke="white" stroke-width="0.67" stroke-miterlimit="10"/>
<path d="M0.340012 66.54H116.39" stroke="white" stroke-width="0.67" stroke-miterlimit="10"/>
<path d="M10.72 33.4199H106.01" stroke="white" stroke-width="0.67" stroke-miterlimit="10"/>
<path d="M10.72 99.6602H106.01" stroke="white" stroke-width="0.67" stroke-miterlimit="10"/>
<path d="M25.25 18.8901V114.18" stroke="white" stroke-width="0.67" stroke-miterlimit="10"/>
<path d="M1.90691 14.0783C-5.64679 -17.0736 13.4833 -48.4507 44.6352 -56.0044C75.7871 -63.5581 107.164 -44.4279 114.718 -13.276C122.272 17.8758 103.141 49.2529 71.9896 56.8066C40.8377 64.3603 9.46061 45.2302 1.90691 14.0783Z" stroke="white" stroke-width="0.67" stroke-miterlimit="10"/>
<path d="M0.340012 0.370117H116.39" stroke="white" stroke-width="0.67" stroke-miterlimit="10"/>
<path d="M10.72 33.4902H106.01" stroke="white" stroke-width="0.67" stroke-miterlimit="10"/>
<path d="M25.25 -47.27V48.02" stroke="white" stroke-width="0.67" stroke-miterlimit="10"/>
</g>
</g>
<defs>
<clipPath id="clip0_885_120334">
<rect width="58" height="133" fill="white"/>
</clipPath>
</defs>
</svg>
