<svg width="32" height="32" viewBox="0 0 32 32" fill="none" xmlns="http://www.w3.org/2000/svg">
<path fill-rule="evenodd" clip-rule="evenodd" d="M16 30C23.732 30 30 23.732 30 16C30 8.26801 23.732 2 16 2C8.26801 2 2 8.26801 2 16C2 23.732 8.26801 30 16 30ZM15.0449 12.078C15.2547 11.9955 15.4791 11.9563 15.7045 11.9628C15.9292 11.9551 16.153 11.9936 16.3622 12.076C16.5713 12.1584 16.7613 12.2828 16.9202 12.4416C17.0791 12.6004 17.2037 12.7902 17.2861 12.9992C17.3686 13.2081 17.4071 13.4317 17.3993 13.6562V21.6895C17.3993 21.9133 17.3552 22.1349 17.2695 22.3417C17.1838 22.5484 17.0581 22.7363 16.8997 22.8945C16.7413 23.0528 16.5533 23.1783 16.3463 23.2639C16.1393 23.3496 15.9175 23.3936 15.6935 23.3936C15.4695 23.3936 15.2477 23.3496 15.0407 23.2639C14.8338 23.1783 14.6457 23.0528 14.4873 22.8945C14.3289 22.7363 14.2033 22.5484 14.1176 22.3417C14.0318 22.1349 13.9877 21.9133 13.9877 21.6895V13.6562C13.9841 13.431 14.0261 13.2073 14.1114 12.9988C14.1966 12.7903 14.3233 12.6011 14.4838 12.4429C14.6442 12.2846 14.8351 12.1605 15.0449 12.078ZM14.9462 7.13416C15.1883 7.04333 15.4462 7.00242 15.7045 7.01389C15.9603 7.00184 16.2159 7.04222 16.4558 7.1317C16.6956 7.22118 16.9149 7.35836 17.1002 7.53494C17.2854 7.71151 17.4329 7.92381 17.5337 8.15898C17.6345 8.39415 17.6864 8.64731 17.6864 8.90312C17.6864 9.15893 17.6345 9.41209 17.5337 9.64726C17.4329 9.88243 17.2854 10.0947 17.1002 10.2713C16.9149 10.4479 16.6956 10.5851 16.4558 10.6745C16.2159 10.764 15.9603 10.8039 15.7045 10.7919C14.5833 10.7919 13.7052 9.97134 13.7052 8.92436C13.7052 8.66608 13.7576 8.41046 13.8592 8.17295C13.9607 7.93544 14.1094 7.72094 14.2963 7.54241C14.4831 7.36387 14.7042 7.225 14.9462 7.13416Z" fill="#959AAD"/>
</svg>
