<svg xmlns="http://www.w3.org/2000/svg" width="16" height="16" viewBox="0 0 16 16" fill="none">
  <path fill-rule="evenodd" clip-rule="evenodd" d="M5.31112 2C4.32835 2 3.42979 2.35976 2.74206 2.95538C1.63958 3.9102 1.31928 5.08122 1.48022 6.23897C1.63662 7.36407 2.24118 8.45527 2.93933 9.34925C3.87085 10.542 5.0642 11.6804 6.01455 12.5143C6.56076 12.9935 7.11879 13.4631 7.6999 13.8999C7.87767 14.0332 8.12253 14.0331 8.30031 13.8998C8.88129 13.463 9.43932 12.9934 9.98547 12.5143C10.9358 11.6804 12.1292 10.542 13.0607 9.34925C13.7588 8.45527 14.3634 7.36407 14.5198 6.23897C14.6807 5.08122 14.3604 3.9102 13.258 2.95538C12.5702 2.35976 11.6717 2 10.6889 2C9.64048 2 8.69214 2.43257 8.00001 3.13195C7.30789 2.43257 6.35954 2 5.31112 2Z" fill="#FF003A"/>
</svg>