<svg xmlns="http://www.w3.org/2000/svg" width="16" height="16" viewBox="0 0 16 16" fill="none">
  <path d="M1.71436 2.72221C1.71436 5.41382 3.03804 7.08877 5.69887 7.88382C6.04827 8.31399 6.4447 8.65284 6.82098 8.89398V11.6964H5.98779C5.04038 11.6964 4.54988 12.2243 4.54988 13.0911V14.362C4.54988 14.6552 4.78505 14.8572 5.06726 14.8572H11.5043C11.7865 14.8572 12.0217 14.6552 12.0217 14.362V13.0911C12.0217 12.2243 11.5245 11.6964 10.577 11.6964H9.75056V8.90054C10.1269 8.6594 10.53 8.31399 10.8794 7.88382C13.5335 7.0822 14.8572 5.41382 14.8572 2.72221C14.8572 2.05094 14.4272 1.64036 13.7082 1.64036H12.4047C12.2971 0.9756 11.8134 0.571533 11.0003 0.571533H5.5712C4.76489 0.571533 4.27439 0.969083 4.16688 1.64036H2.86335C2.14439 1.64036 1.71436 2.05094 1.71436 2.72221ZM2.67521 2.81345C2.67521 2.70918 2.75584 2.62446 2.87006 2.62446H4.13328V3.90182C4.13328 4.89896 4.40205 5.8244 4.81865 6.6195C3.41432 5.93519 2.67521 4.67085 2.67521 2.81345ZM5.14789 4.08431V1.96621C5.14789 1.72508 5.32259 1.55563 5.5712 1.55563H11.0003C11.249 1.55563 11.4237 1.72508 11.4237 1.96621V4.08431C11.4237 6.40444 9.21973 8.48344 8.28576 8.48344C7.3518 8.48344 5.14789 6.40444 5.14789 4.08431ZM5.56448 13.8732V13.0911C5.56448 12.8434 5.73246 12.6805 5.98779 12.6805H10.577C10.8391 12.6805 11.0071 12.8434 11.0071 13.0911V13.8732H5.56448ZM7.8356 11.6964V9.39584C7.99683 9.44144 8.14465 9.46102 8.28576 9.46102C8.42686 9.46102 8.57468 9.44144 8.73597 9.39584V11.6964H7.8356ZM11.7529 6.6195C12.1695 5.8244 12.4383 4.89896 12.4383 3.90182V2.62446H13.7015C13.8157 2.62446 13.8963 2.70918 13.8963 2.81345C13.8963 4.67085 13.1572 5.93519 11.7529 6.6195Z" fill="white"/>
</svg>