<svg xmlns="http://www.w3.org/2000/svg" width="16" height="16" viewBox="0 0 16 16" fill="none">
  <path d="M8.043 9.04899C8.06823 9.04462 8.09394 9.04463 8.11917 9.04899C8.20776 9.06432 8.29067 9.13362 8.32881 9.25667L8.77738 10.6629L10.2442 10.6499L10.3002 10.6532C10.5653 10.6891 10.605 10.9807 10.3978 11.1252L9.19925 11.9819L9.67516 13.3817C9.73963 13.575 9.63921 13.7242 9.48766 13.7397C9.46007 13.7426 9.43074 13.7411 9.40042 13.7345C9.35503 13.7247 9.30748 13.7033 9.2598 13.6694L8.08792 12.8062L6.90238 13.6694C6.65461 13.8502 6.40042 13.6629 6.49417 13.3817L6.96943 11.9819L5.77087 11.1317C5.55115 10.9747 5.60217 10.6883 5.86331 10.6532C5.88062 10.6508 5.89886 10.6499 5.918 10.6499L7.3848 10.6629L7.83337 9.25667C7.87146 9.13363 7.95443 9.06434 8.043 9.04899Z" fill="white"/>
  <path fill-rule="evenodd" clip-rule="evenodd" d="M11.9519 0.69873L12.0456 0.702637C12.2544 0.722004 12.3979 0.81013 12.5209 0.97998L14.3353 3.75928C14.4759 3.96686 14.4827 4.22126 14.3555 4.44222L11.8054 9.23063C11.8143 9.24504 11.8239 9.25908 11.8327 9.2736C12.2355 9.93774 12.4675 10.718 12.4675 11.5535C12.4675 13.9017 10.6261 15.8162 8.30732 15.9338C8.2325 15.9376 8.15719 15.9396 8.08141 15.9396C8.0055 15.9396 7.9298 15.9375 7.85485 15.9338C5.52971 15.8165 3.68818 13.9019 3.68818 11.5535C3.68821 10.718 3.91994 9.93773 4.32295 9.2736C4.3316 9.25934 4.34083 9.24544 4.34964 9.23128L1.80016 4.44222C1.67969 4.22135 1.68596 3.96681 1.81969 3.75928L3.64131 0.97998C3.77519 0.785848 3.94262 0.698788 4.21032 0.69873H11.9519ZM7.90628 8.1766C6.11337 8.26723 4.69931 9.74371 4.69925 11.5535C4.69925 13.3634 6.11964 14.8338 7.90693 14.924C7.96464 14.9269 8.02298 14.9285 8.08141 14.9285C8.13972 14.9285 8.19767 14.9269 8.25524 14.924C10.0421 14.8334 11.4564 13.357 11.4564 11.5535C11.4563 9.73717 10.0358 8.26674 8.25459 8.1766C8.19722 8.17369 8.13949 8.17204 8.08141 8.17204C8.02275 8.17204 7.96419 8.17367 7.90628 8.1766ZM2.82425 4.07373L5.02542 8.39535C5.05852 8.36332 5.09159 8.33127 5.12568 8.30029C5.48948 7.96973 5.90917 7.69954 6.36917 7.50537C6.40018 7.49228 6.43155 7.48 6.46292 7.46761L3.90238 2.41943L2.82425 4.07373ZM9.69274 7.46696C9.72494 7.47968 9.75728 7.49192 9.78909 7.50537C10.2483 7.69952 10.6673 7.96976 11.0306 8.30029C11.0646 8.33118 11.0973 8.36341 11.1302 8.39535L13.3379 4.07373L12.2533 2.41943L9.69274 7.46696ZM7.49873 7.19938C7.54283 7.19357 7.58704 7.1876 7.63154 7.18311C7.70544 7.17563 7.7799 7.16996 7.85485 7.16618C7.92979 7.1624 8.00552 7.16097 8.08141 7.16097C8.15718 7.16097 8.23251 7.16239 8.30732 7.16618C8.38205 7.16997 8.45629 7.17563 8.52998 7.18311C8.5723 7.1874 8.61433 7.19324 8.65628 7.19873L9.95381 4.78337H6.20185L7.49873 7.19938ZM4.55212 1.7098L5.65954 3.7723H10.4961L11.6035 1.7098H4.55212Z" fill="white"/>
</svg>