<svg xmlns="http://www.w3.org/2000/svg" width="16" height="16" viewBox="0 0 16 16" fill="none">
  <path fill-rule="evenodd" clip-rule="evenodd" d="M3.44532 14.8571H12.5144C13.4663 14.8571 14.0226 14.3282 14.0226 13.414V7.14115L14.9543 7.90282C15.0884 8.01387 15.2425 8.11177 15.4302 8.11177C15.7452 8.11177 16 7.92243 16 7.609C16 7.41308 15.933 7.28253 15.7922 7.16495L14.0226 5.71595V3.01199C14.0226 2.72468 13.8349 2.54184 13.54 2.54184H12.8228C12.5346 2.54184 12.3401 2.72468 12.3401 3.01199V4.33832L8.81442 1.45136C8.3184 1.03998 7.70168 1.03998 7.19896 1.45136L0.214495 7.16495C0.0670299 7.28253 0 7.43921 0 7.58938C0 7.85712 0.214495 8.11177 0.576453 8.11177C0.764139 8.11177 0.918307 8.01387 1.05907 7.90282L1.94109 7.18178L1.93045 13.414C1.93045 14.3282 2.4868 14.8571 3.44532 14.8571ZM9.9338 13.8058V9.4308C9.9338 9.13047 9.73269 8.93455 9.42439 8.93455H6.5823C6.26725 8.93455 6.0662 9.13047 6.0662 9.4308V13.8058H3.67323C3.24424 13.8058 3.00963 13.5707 3.00963 13.1463V6.30826L7.76872 2.41777C7.91617 2.28718 8.09715 2.28718 8.24467 2.41777L12.9434 6.25895V13.1463C12.9434 13.5707 12.7088 13.8058 12.2865 13.8058H9.9338Z" fill="white"/>
</svg>